<svg xmlns="http://www.w3.org/2000/svg" viewBox="0 0 640 480">
  <g fill="#facc15" stroke="#ffffff" stroke-width="8" stroke-linejoin="round">
    <path d="M122 70l20 42 46 7-33 32 8 46-41-22-41 22 8-46-33-32 46-7z"/>
    <path d="M500 78l16 34 37 5-27 27 7 37-33-18-33 18 7-37-27-27 37-5z"/>
    <path d="M534 312l20 42 46 7-33 32 8 46-41-22-41 22 8-46-33-32 46-7z"/>
  </g>
  <g fill="#159e95" stroke="#ffffff" stroke-width="6" stroke-linejoin="round">
    <path d="M96 320l13 27 30 4-22 21 5 30-26-14-26 14 5-30-22-21 30-4z"/>
    <path d="M430 44l11 23 25 4-18 18 4 25-22-12-22 12 4-25-18-18 25-4z"/>
  </g>
</svg>
