<svg xmlns="http://www.w3.org/2000/svg" viewBox="0 0 640 480">
  <g transform="translate(0 85)">
    <path d="M178 160h112c18 0 32 14 32 32v34c0 54-44 98-98 98h-18c-48 0-89-35-97-82l-8-45c-4-19 11-37 30-37h47z" fill="#111827"/>
    <path d="M350 160h112c18 0 32 14 32 32l-8 50c-8 47-49 82-97 82h-18c-54 0-98-44-98-98v-34c0-18 14-32 32-32h45z" fill="#111827"/>
    <path d="M310 190c26-18 54-18 80 0" fill="none" stroke="#111827" stroke-width="24" stroke-linecap="round"/>
    <path d="M133 170c-30 0-57-10-83-28" fill="none" stroke="#111827" stroke-width="24" stroke-linecap="round"/>
    <path d="M507 170c30 0 57-10 83-28" fill="none" stroke="#111827" stroke-width="24" stroke-linecap="round"/>
    <path d="M150 185h125" stroke="#ffffff" stroke-width="10" stroke-linecap="round" opacity=".35"/>
    <path d="M365 185h106" stroke="#ffffff" stroke-width="10" stroke-linecap="round" opacity=".35"/>
  </g>
</svg>
